# xmcd
#
# Track frame offsets:
#	150
#	18407
#	36805
#	58955
#	73377
#	91735
#	112657
#	129672
#	147882
#	168810
#	187767
#	206110
#	225492
#	247722
#	279480
#
# Disc length: 3916 seconds
#
# Revision: 2
# Processed by: cddbd v1.5.2PL0 Copyright (c) Steve Scherf et al.
# Submitted via: EasyCDDAExtractor 15.3.0.1
#
DISCID=c60f4a0f
DTITLE=Ricky Martin - Ricky Martin (US Edition)
DYEAR=1999
DGENRE=Pop
TTITLE0=Livin' La Vida Loca
TTITLE1=Spanish Eyes
TTITLE2=She's All I Ever Had
TTITLE3=Shake Your Bon-Bon
TTITLE4=Be Careful (Cuidado Con Mi Corazon) (Performed By Ricky Martin and Madon
TTITLE4=na)
TTITLE5=I Am Made Of You
TTITLE6=Love You For A Day
TTITLE7=Private Emotion (Performed By Ricky Martin and Meja)
TTITLE8=The Cup Of Life (Spanglish Radio Edit) (The Official Song Of The World
TTITLE8=Cup, France '98)
TTITLE9=You Stay With Me
TTITLE10=Livin' La Vida Loca (Spanish Version)
TTITLE11=I Count The Minutes
TTITLE12=Bella (She's All I Ever Had)
TTITLE13=Maria (Spanglish Radio Edit)
TTITLE14=Data
EXTD=
EXTT0=
EXTT1=
EXTT2=
EXTT3=
EXTT4=
EXTT5=
EXTT6=
EXTT7=
EXTT8=
EXTT9=
EXTT10=
EXTT11=
EXTT12=
EXTT13=
EXTT14=
PLAYORDER=
